<?xml version="1.0" encoding="UTF-8"?>
<svg xmlns="http://www.w3.org/2000/svg" xmlns:xlink="http://www.w3.org/1999/xlink" viewBox="0 0 32 32" width="32px" height="32px">
<g id="surface16351192">
<path style=" stroke:none;fill-rule:nonzero;fill:rgb(40.000001%,40.000001%,40.000001%);fill-opacity:1;" d="M 18.667969 5.332031 C 18.667969 6.804688 17.472656 8 16 8 C 14.527344 8 13.332031 6.804688 13.332031 5.332031 C 13.332031 3.859375 14.527344 2.667969 16 2.667969 C 17.472656 2.667969 18.667969 3.859375 18.667969 5.332031 Z M 18.667969 5.332031 "/>
<path style=" stroke:none;fill-rule:nonzero;fill:rgb(40.000001%,40.000001%,40.000001%);fill-opacity:1;" d="M 18.667969 16 C 18.667969 17.472656 17.472656 18.667969 16 18.667969 C 14.527344 18.667969 13.332031 17.472656 13.332031 16 C 13.332031 14.527344 14.527344 13.332031 16 13.332031 C 17.472656 13.332031 18.667969 14.527344 18.667969 16 Z M 18.667969 16 "/>
<path style=" stroke:none;fill-rule:nonzero;fill:rgb(40.000001%,40.000001%,40.000001%);fill-opacity:1;" d="M 18.667969 26.667969 C 18.667969 28.140625 17.472656 29.332031 16 29.332031 C 14.527344 29.332031 13.332031 28.140625 13.332031 26.667969 C 13.332031 25.195312 14.527344 24 16 24 C 17.472656 24 18.667969 25.195312 18.667969 26.667969 Z M 18.667969 26.667969 "/>
</g>
</svg>
